<svg xmlns="http://www.w3.org/2000/svg" width="1254" height="1254" viewBox="0 0 1254 1254" role="img" aria-labelledby="title desc">
  <title id="title">Safar logo in true navy blue with original sun dot SVG</title>
  <desc id="desc">Safar logo recolored to true navy blue (#000080) while preserving the original warm sun dot.</desc>

  <defs>
    <radialGradient id="bgVignette" cx="50%" cy="42%" r="68%">
      <stop offset="0%" stop-color="#000080"/>
      <stop offset="45%" stop-color="#000080"/>
      <stop offset="100%" stop-color="#000080"/>
    </radialGradient>

    <linearGradient id="ringMain" x1="270" y1="210" x2="980" y2="980" gradientUnits="userSpaceOnUse">
      <stop offset="0%" stop-color="#000080"/>
      <stop offset="10%" stop-color="#000080"/>
      <stop offset="32%" stop-color="#000080"/>
      <stop offset="72%" stop-color="#000080"/>
      <stop offset="100%" stop-color="#000080"/>
    </linearGradient>

    <linearGradient id="ringBevel" x1="320" y1="260" x2="910" y2="900" gradientUnits="userSpaceOnUse">
      <stop offset="0%" stop-color="#000080" stop-opacity="0.85"/>
      <stop offset="20%" stop-color="#000080" stop-opacity="0.38"/>
      <stop offset="55%" stop-color="#000080" stop-opacity="0.08"/>
      <stop offset="100%" stop-color="#000080" stop-opacity="0"/>
    </linearGradient>

    <linearGradient id="ringEdgeShadow" x1="880" y1="760" x2="350" y2="370" gradientUnits="userSpaceOnUse">
      <stop offset="0%" stop-color="#000080" stop-opacity="0.42"/>
      <stop offset="55%" stop-color="#000080" stop-opacity="0.10"/>
      <stop offset="100%" stop-color="#000080" stop-opacity="0"/>
    </linearGradient>

    <linearGradient id="textMain" x1="350" y1="470" x2="930" y2="720" gradientUnits="userSpaceOnUse">
      <stop offset="0%" stop-color="#000080"/>
      <stop offset="16%" stop-color="#000080"/>
      <stop offset="48%" stop-color="#000080"/>
      <stop offset="100%" stop-color="#000080"/>
    </linearGradient>

    <linearGradient id="textBevel" x1="370" y1="500" x2="900" y2="660" gradientUnits="userSpaceOnUse">
      <stop offset="0%" stop-color="#000080" stop-opacity="0.65"/>
      <stop offset="28%" stop-color="#000080" stop-opacity="0.24"/>
      <stop offset="100%" stop-color="#000080" stop-opacity="0"/>
    </linearGradient>

    <radialGradient id="sunMain" cx="34%" cy="28%" r="74%">
      <stop offset="0%" stop-color="#FFF8D9"/>
      <stop offset="30%" stop-color="#FFD978"/>
      <stop offset="70%" stop-color="#F7B733"/>
      <stop offset="100%" stop-color="#A85C00"/>
    </radialGradient>

    <filter id="shadowSoft" x="-30%" y="-30%" width="160%" height="180%" color-interpolation-filters="sRGB">
      <feDropShadow dx="0" dy="16" stdDeviation="18" flood-color="#000080" flood-opacity="0.45"/>
    </filter>

    <filter id="shadowText" x="-25%" y="-25%" width="150%" height="170%" color-interpolation-filters="sRGB">
      <feDropShadow dx="0" dy="8" stdDeviation="8" flood-color="#000080" flood-opacity="0.38"/>
    </filter>

    <filter id="sunGlow" x="-35%" y="-35%" width="170%" height="170%" color-interpolation-filters="sRGB">
      <feDropShadow dx="0" dy="8" stdDeviation="10" flood-color="#000000" flood-opacity="0.32"/>
      <feDropShadow dx="0" dy="0" stdDeviation="8" flood-color="#FFD166" flood-opacity="0.25"/>
    </filter>
  </defs>

  <rect width="1254" height="1254" fill="transparent"/>

  <!-- Ring + path extrusion shadow -->
  <g opacity="0.52">
    <path d="M606,227 L605,228 L596,228 L595,229 L588,229 L587,230 L582,230 L581,231 L575,231 L574,232 L570,232 L569,233 L564,233 L563,234 L560,234 L559,235 L555,235 L554,236 L551,236 L550,237 L543,238 L542,239 L540,239 L536,241 L533,241 L532,242 L530,242 L526,244 L523,244 L517,247 L515,247 L514,248 L509,249 L506,251 L504,251 L501,253 L499,253 L496,255 L494,255 L489,258 L487,258 L463,270 L461,272 L452,276 L450,278 L442,282 L439,285 L436,286 L434,288 L427,292 L424,295 L423,295 L413,303 L412,303 L403,311 L402,311 L389,323 L388,323 L363,348 L363,349 L351,362 L351,363 L347,367 L347,368 L335,383 L335,384 L323,401 L322,404 L320,406 L316,414 L314,416 L298,448 L298,450 L295,455 L295,457 L291,465 L290,470 L288,473 L288,475 L287,476 L286,481 L284,484 L284,487 L283,488 L283,490 L282,491 L282,493 L280,497 L280,500 L278,504 L278,507 L277,508 L277,511 L276,512 L276,515 L275,516 L275,520 L274,521 L274,525 L273,526 L272,535 L271,536 L270,548 L269,549 L269,555 L268,556 L268,565 L267,566 L267,579 L266,580 L266,622 L267,623 L267,636 L268,637 L268,646 L269,647 L269,654 L270,655 L270,661 L271,662 L272,673 L273,674 L274,683 L275,684 L275,687 L276,688 L276,691 L277,692 L277,695 L278,696 L279,703 L281,707 L281,710 L282,711 L282,713 L283,714 L283,716 L284,717 L284,719 L285,720 L285,722 L286,723 L288,731 L290,734 L291,739 L296,749 L296,751 L310,779 L312,781 L318,793 L320,795 L320,796 L322,798 L322,799 L324,801 L324,802 L326,804 L326,805 L328,807 L332,814 L335,817 L335,818 L338,821 L338,822 L341,825 L341,826 L345,830 L345,831 L349,835 L349,836 L367,855 L367,856 L394,881 L395,881 L404,889 L405,889 L416,898 L423,902 L426,905 L429,906 L440,914 L445,916 L452,921 L461,925 L463,927 L479,935 L481,935 L490,940 L492,940 L495,942 L497,942 L505,946 L510,947 L513,949 L515,949 L516,950 L518,950 L519,951 L521,951 L522,952 L524,952 L525,953 L527,953 L528,954 L530,954 L531,955 L533,955 L537,957 L544,958 L548,960 L551,960 L552,961 L555,961 L556,962 L559,962 L560,963 L563,963 L564,964 L568,964 L569,965 L573,965 L574,966 L578,966 L579,967 L584,967 L585,968 L597,969 L598,970 L606,970 L607,971 L618,971 L619,972 L659,972 L660,971 L672,971 L673,970 L682,970 L683,969 L689,969 L690,968 L696,968 L697,967 L708,966 L709,965 L713,965 L714,964 L722,963 L723,962 L726,962 L727,961 L734,960 L738,958 L741,958 L742,957 L744,957 L748,955 L751,955 L757,952 L765,950 L773,946 L778,945 L785,941 L787,941 L794,937 L796,937 L812,929 L814,927 L821,924 L823,922 L831,918 L836,914 L839,913 L841,911 L842,911 L844,909 L851,905 L855,901 L859,899 L863,895 L864,895 L868,891 L869,891 L873,887 L874,887 L901,862 L901,861 L914,848 L914,847 L924,836 L924,835 L928,831 L928,830 L937,819 L937,818 L947,804 L948,801 L950,799 L951,796 L956,789 L959,782 L961,780 L970,762 L970,760 L974,753 L974,751 L978,743 L979,738 L983,730 L983,728 L984,727 L984,725 L985,724 L985,722 L986,721 L986,719 L988,715 L988,712 L989,711 L989,709 L991,705 L991,702 L992,701 L992,698 L993,697 L993,694 L994,693 L994,690 L995,689 L995,686 L996,685 L996,681 L997,680 L998,671 L999,670 L1000,658 L1001,657 L1001,651 L1002,650 L1002,642 L1003,641 L1003,629 L1004,628 L1004,577 L1003,576 L1003,565 L1002,564 L1001,548 L1000,547 L1000,542 L999,541 L999,536 L998,535 L997,526 L996,525 L996,522 L995,521 L995,517 L994,516 L994,513 L993,512 L993,509 L992,508 L992,505 L991,504 L990,498 L985,489 L976,481 L970,478 L966,478 L965,477 L956,477 L955,478 L952,478 L942,483 L937,488 L932,497 L932,500 L931,501 L931,513 L932,514 L932,517 L933,518 L933,520 L934,521 L934,523 L936,527 L937,534 L938,535 L938,539 L939,540 L940,548 L941,549 L941,554 L942,555 L943,568 L944,569 L944,579 L945,580 L945,623 L944,624 L944,635 L943,636 L943,644 L942,645 L941,657 L940,658 L940,662 L939,663 L938,672 L936,676 L936,680 L935,681 L934,687 L932,691 L931,698 L930,699 L930,701 L929,702 L927,710 L925,713 L924,718 L918,730 L918,732 L915,737 L915,739 L909,751 L907,753 L904,760 L902,762 L900,767 L898,769 L897,772 L893,777 L892,780 L890,782 L888,786 L882,793 L880,797 L872,806 L872,807 L867,812 L867,813 L860,820 L860,821 L842,839 L841,839 L833,847 L832,847 L828,851 L827,851 L824,854 L823,854 L815,861 L814,861 L803,869 L800,870 L795,874 L788,877 L786,879 L770,887 L768,887 L761,891 L756,892 L751,895 L749,895 L748,896 L746,896 L745,897 L743,897 L742,898 L740,898 L739,899 L737,899 L733,901 L728,901 L724,897 L723,897 L720,894 L717,893 L712,889 L707,887 L705,885 L691,878 L689,878 L684,875 L682,875 L677,872 L675,872 L667,868 L662,867 L659,865 L654,864 L651,862 L646,861 L643,859 L641,859 L640,858 L635,857 L632,855 L627,854 L624,852 L622,852 L619,850 L617,850 L612,847 L610,847 L603,843 L601,843 L599,841 L592,838 L590,836 L586,834 L581,829 L580,829 L579,827 L575,823 L572,817 L572,808 L573,807 L573,805 L576,801 L576,800 L579,797 L579,796 L582,793 L583,793 L586,790 L587,790 L592,786 L608,778 L610,778 L613,776 L615,776 L623,772 L625,772 L626,771 L628,771 L632,769 L635,769 L639,767 L642,767 L643,766 L645,766 L649,764 L652,764 L653,763 L656,763 L657,762 L660,762 L661,761 L664,761 L665,760 L668,760 L669,759 L672,759 L673,758 L677,758 L678,757 L681,757 L682,756 L686,756 L687,755 L691,755 L692,754 L696,754 L697,753 L701,753 L702,752 L707,752 L708,751 L713,751 L714,750 L718,750 L719,749 L731,748 L732,747 L738,747 L739,746 L745,746 L746,745 L752,745 L753,744 L759,744 L760,743 L767,743 L768,742 L776,742 L777,741 L785,741 L786,740 L804,739 L805,738 L815,738 L816,737 L826,737 L827,736 L835,736 L836,735 L839,735 L841,734 L845,730 L846,728 L846,723 L845,721 L841,717 L839,716 L837,716 L836,715 L828,715 L827,714 L817,714 L816,713 L802,713 L801,712 L784,712 L783,711 L752,711 L751,710 L713,710 L712,711 L684,711 L683,712 L667,712 L666,713 L653,713 L652,714 L640,714 L639,715 L629,715 L628,716 L620,716 L619,717 L611,717 L610,718 L595,719 L594,720 L588,720 L587,721 L574,722 L573,723 L568,723 L567,724 L562,724 L561,725 L556,725 L555,726 L551,726 L550,727 L545,727 L544,728 L540,728 L539,729 L535,729 L534,730 L525,731 L524,732 L521,732 L520,733 L516,733 L515,734 L512,734 L511,735 L507,735 L506,736 L503,736 L502,737 L499,737 L498,738 L495,738 L494,739 L491,739 L490,740 L487,740 L486,741 L479,742 L475,744 L472,744 L471,745 L469,745 L465,747 L462,747 L461,748 L459,748 L458,749 L456,749 L455,750 L453,750 L452,751 L450,751 L449,752 L441,754 L438,756 L430,758 L427,760 L425,760 L420,763 L418,763 L415,765 L413,765 L402,771 L400,771 L386,778 L384,780 L381,781 L369,764 L367,759 L365,757 L363,752 L361,750 L356,740 L356,738 L354,736 L354,734 L350,727 L350,725 L346,717 L346,715 L345,714 L344,709 L342,706 L342,704 L341,703 L341,701 L339,697 L339,694 L338,693 L338,691 L336,687 L336,684 L335,683 L335,680 L334,679 L334,676 L333,675 L333,671 L332,670 L332,666 L331,665 L331,661 L330,660 L330,656 L329,655 L328,642 L327,641 L327,631 L326,630 L326,616 L325,615 L325,586 L326,585 L326,572 L327,571 L327,562 L328,561 L328,555 L329,554 L329,549 L330,548 L331,538 L332,537 L333,529 L334,528 L335,521 L337,517 L337,514 L338,513 L338,511 L340,507 L340,504 L341,503 L342,498 L344,495 L345,490 L347,487 L347,485 L349,482 L349,480 L351,477 L351,475 L355,468 L355,466 L362,452 L364,450 L367,443 L369,441 L371,436 L373,434 L373,433 L375,431 L375,430 L377,428 L377,427 L379,425 L379,424 L381,422 L385,415 L392,407 L392,406 L395,403 L395,402 L407,389 L407,388 L427,368 L428,368 L436,360 L437,360 L446,352 L447,352 L458,343 L459,343 L470,335 L473,334 L475,332 L483,328 L485,326 L509,314 L511,314 L518,310 L520,310 L528,306 L530,306 L531,305 L533,305 L534,304 L536,304 L537,303 L539,303 L540,302 L542,302 L543,301 L545,301 L546,300 L548,300 L552,298 L555,298 L556,297 L559,297 L560,296 L563,296 L564,295 L567,295 L568,294 L571,294 L572,293 L576,293 L577,292 L586,291 L587,290 L593,290 L594,289 L601,289 L602,288 L611,288 L612,287 L631,287 L632,286 L642,286 L643,287 L661,287 L662,288 L671,288 L672,289 L686,290 L687,291 L691,291 L692,292 L696,292 L697,293 L701,293 L702,294 L705,294 L706,295 L709,295 L710,296 L717,297 L718,298 L724,299 L725,300 L727,300 L728,301 L730,301 L731,302 L733,302 L734,303 L736,303 L737,304 L739,304 L743,306 L746,306 L747,307 L756,307 L757,306 L761,306 L769,302 L777,294 L778,291 L780,289 L780,287 L782,283 L782,271 L781,270 L781,267 L777,259 L768,251 L762,248 L757,247 L754,245 L752,245 L751,244 L749,244 L748,243 L746,243 L742,241 L739,241 L738,240 L736,240 L732,238 L729,238 L728,237 L721,236 L720,235 L716,235 L715,234 L712,234 L711,233 L707,233 L706,232 L702,232 L701,231 L696,231 L695,230 L681,229 L680,228 L670,228 L669,227 L652,227 L651,226 L623,226 L622,227 Z" fill="#000080" transform="translate(0 18)"/>
    <path d="M606,227 L605,228 L596,228 L595,229 L588,229 L587,230 L582,230 L581,231 L575,231 L574,232 L570,232 L569,233 L564,233 L563,234 L560,234 L559,235 L555,235 L554,236 L551,236 L550,237 L543,238 L542,239 L540,239 L536,241 L533,241 L532,242 L530,242 L526,244 L523,244 L517,247 L515,247 L514,248 L509,249 L506,251 L504,251 L501,253 L499,253 L496,255 L494,255 L489,258 L487,258 L463,270 L461,272 L452,276 L450,278 L442,282 L439,285 L436,286 L434,288 L427,292 L424,295 L423,295 L413,303 L412,303 L403,311 L402,311 L389,323 L388,323 L363,348 L363,349 L351,362 L351,363 L347,367 L347,368 L335,383 L335,384 L323,401 L322,404 L320,406 L316,414 L314,416 L298,448 L298,450 L295,455 L295,457 L291,465 L290,470 L288,473 L288,475 L287,476 L286,481 L284,484 L284,487 L283,488 L283,490 L282,491 L282,493 L280,497 L280,500 L278,504 L278,507 L277,508 L277,511 L276,512 L276,515 L275,516 L275,520 L274,521 L274,525 L273,526 L272,535 L271,536 L270,548 L269,549 L269,555 L268,556 L268,565 L267,566 L267,579 L266,580 L266,622 L267,623 L267,636 L268,637 L268,646 L269,647 L269,654 L270,655 L270,661 L271,662 L272,673 L273,674 L274,683 L275,684 L275,687 L276,688 L276,691 L277,692 L277,695 L278,696 L279,703 L281,707 L281,710 L282,711 L282,713 L283,714 L283,716 L284,717 L284,719 L285,720 L285,722 L286,723 L288,731 L290,734 L291,739 L296,749 L296,751 L310,779 L312,781 L318,793 L320,795 L320,796 L322,798 L322,799 L324,801 L324,802 L326,804 L326,805 L328,807 L332,814 L335,817 L335,818 L338,821 L338,822 L341,825 L341,826 L345,830 L345,831 L349,835 L349,836 L367,855 L367,856 L394,881 L395,881 L404,889 L405,889 L416,898 L423,902 L426,905 L429,906 L440,914 L445,916 L452,921 L461,925 L463,927 L479,935 L481,935 L490,940 L492,940 L495,942 L497,942 L505,946 L510,947 L513,949 L515,949 L516,950 L518,950 L519,951 L521,951 L522,952 L524,952 L525,953 L527,953 L528,954 L530,954 L531,955 L533,955 L537,957 L544,958 L548,960 L551,960 L552,961 L555,961 L556,962 L559,962 L560,963 L563,963 L564,964 L568,964 L569,965 L573,965 L574,966 L578,966 L579,967 L584,967 L585,968 L597,969 L598,970 L606,970 L607,971 L618,971 L619,972 L659,972 L660,971 L672,971 L673,970 L682,970 L683,969 L689,969 L690,968 L696,968 L697,967 L708,966 L709,965 L713,965 L714,964 L722,963 L723,962 L726,962 L727,961 L734,960 L738,958 L741,958 L742,957 L744,957 L748,955 L751,955 L757,952 L765,950 L773,946 L778,945 L785,941 L787,941 L794,937 L796,937 L812,929 L814,927 L821,924 L823,922 L831,918 L836,914 L839,913 L841,911 L842,911 L844,909 L851,905 L855,901 L859,899 L863,895 L864,895 L868,891 L869,891 L873,887 L874,887 L901,862 L901,861 L914,848 L914,847 L924,836 L924,835 L928,831 L928,830 L937,819 L937,818 L947,804 L948,801 L950,799 L951,796 L956,789 L959,782 L961,780 L970,762 L970,760 L974,753 L974,751 L978,743 L979,738 L983,730 L983,728 L984,727 L984,725 L985,724 L985,722 L986,721 L986,719 L988,715 L988,712 L989,711 L989,709 L991,705 L991,702 L992,701 L992,698 L993,697 L993,694 L994,693 L994,690 L995,689 L995,686 L996,685 L996,681 L997,680 L998,671 L999,670 L1000,658 L1001,657 L1001,651 L1002,650 L1002,642 L1003,641 L1003,629 L1004,628 L1004,577 L1003,576 L1003,565 L1002,564 L1001,548 L1000,547 L1000,542 L999,541 L999,536 L998,535 L997,526 L996,525 L996,522 L995,521 L995,517 L994,516 L994,513 L993,512 L993,509 L992,508 L992,505 L991,504 L990,498 L985,489 L976,481 L970,478 L966,478 L965,477 L956,477 L955,478 L952,478 L942,483 L937,488 L932,497 L932,500 L931,501 L931,513 L932,514 L932,517 L933,518 L933,520 L934,521 L934,523 L936,527 L937,534 L938,535 L938,539 L939,540 L940,548 L941,549 L941,554 L942,555 L943,568 L944,569 L944,579 L945,580 L945,623 L944,624 L944,635 L943,636 L943,644 L942,645 L941,657 L940,658 L940,662 L939,663 L938,672 L936,676 L936,680 L935,681 L934,687 L932,691 L931,698 L930,699 L930,701 L929,702 L927,710 L925,713 L924,718 L918,730 L918,732 L915,737 L915,739 L909,751 L907,753 L904,760 L902,762 L900,767 L898,769 L897,772 L893,777 L892,780 L890,782 L888,786 L882,793 L880,797 L872,806 L872,807 L867,812 L867,813 L860,820 L860,821 L842,839 L841,839 L833,847 L832,847 L828,851 L827,851 L824,854 L823,854 L815,861 L814,861 L803,869 L800,870 L795,874 L788,877 L786,879 L770,887 L768,887 L761,891 L756,892 L751,895 L749,895 L748,896 L746,896 L745,897 L743,897 L742,898 L740,898 L739,899 L737,899 L733,901 L728,901 L724,897 L723,897 L720,894 L717,893 L712,889 L707,887 L705,885 L691,878 L689,878 L684,875 L682,875 L677,872 L675,872 L667,868 L662,867 L659,865 L654,864 L651,862 L646,861 L643,859 L641,859 L640,858 L635,857 L632,855 L627,854 L624,852 L622,852 L619,850 L617,850 L612,847 L610,847 L603,843 L601,843 L599,841 L592,838 L590,836 L586,834 L581,829 L580,829 L579,827 L575,823 L572,817 L572,808 L573,807 L573,805 L576,801 L576,800 L579,797 L579,796 L582,793 L583,793 L586,790 L587,790 L592,786 L608,778 L610,778 L613,776 L615,776 L623,772 L625,772 L626,771 L628,771 L632,769 L635,769 L639,767 L642,767 L643,766 L645,766 L649,764 L652,764 L653,763 L656,763 L657,762 L660,762 L661,761 L664,761 L665,760 L668,760 L669,759 L672,759 L673,758 L677,758 L678,757 L681,757 L682,756 L686,756 L687,755 L691,755 L692,754 L696,754 L697,753 L701,753 L702,752 L707,752 L708,751 L713,751 L714,750 L718,750 L719,749 L731,748 L732,747 L738,747 L739,746 L745,746 L746,745 L752,745 L753,744 L759,744 L760,743 L767,743 L768,742 L776,742 L777,741 L785,741 L786,740 L804,739 L805,738 L815,738 L816,737 L826,737 L827,736 L835,736 L836,735 L839,735 L841,734 L845,730 L846,728 L846,723 L845,721 L841,717 L839,716 L837,716 L836,715 L828,715 L827,714 L817,714 L816,713 L802,713 L801,712 L784,712 L783,711 L752,711 L751,710 L713,710 L712,711 L684,711 L683,712 L667,712 L666,713 L653,713 L652,714 L640,714 L639,715 L629,715 L628,716 L620,716 L619,717 L611,717 L610,718 L595,719 L594,720 L588,720 L587,721 L574,722 L573,723 L568,723 L567,724 L562,724 L561,725 L556,725 L555,726 L551,726 L550,727 L545,727 L544,728 L540,728 L539,729 L535,729 L534,730 L525,731 L524,732 L521,732 L520,733 L516,733 L515,734 L512,734 L511,735 L507,735 L506,736 L503,736 L502,737 L499,737 L498,738 L495,738 L494,739 L491,739 L490,740 L487,740 L486,741 L479,742 L475,744 L472,744 L471,745 L469,745 L465,747 L462,747 L461,748 L459,748 L458,749 L456,749 L455,750 L453,750 L452,751 L450,751 L449,752 L441,754 L438,756 L430,758 L427,760 L425,760 L420,763 L418,763 L415,765 L413,765 L402,771 L400,771 L386,778 L384,780 L381,781 L369,764 L367,759 L365,757 L363,752 L361,750 L356,740 L356,738 L354,736 L354,734 L350,727 L350,725 L346,717 L346,715 L345,714 L344,709 L342,706 L342,704 L341,703 L341,701 L339,697 L339,694 L338,693 L338,691 L336,687 L336,684 L335,683 L335,680 L334,679 L334,676 L333,675 L333,671 L332,670 L332,666 L331,665 L331,661 L330,660 L330,656 L329,655 L328,642 L327,641 L327,631 L326,630 L326,616 L325,615 L325,586 L326,585 L326,572 L327,571 L327,562 L328,561 L328,555 L329,554 L329,549 L330,548 L331,538 L332,537 L333,529 L334,528 L335,521 L337,517 L337,514 L338,513 L338,511 L340,507 L340,504 L341,503 L342,498 L344,495 L345,490 L347,487 L347,485 L349,482 L349,480 L351,477 L351,475 L355,468 L355,466 L362,452 L364,450 L367,443 L369,441 L371,436 L373,434 L373,433 L375,431 L375,430 L377,428 L377,427 L379,425 L379,424 L381,422 L385,415 L392,407 L392,406 L395,403 L395,402 L407,389 L407,388 L427,368 L428,368 L436,360 L437,360 L446,352 L447,352 L458,343 L459,343 L470,335 L473,334 L475,332 L483,328 L485,326 L509,314 L511,314 L518,310 L520,310 L528,306 L530,306 L531,305 L533,305 L534,304 L536,304 L537,303 L539,303 L540,302 L542,302 L543,301 L545,301 L546,300 L548,300 L552,298 L555,298 L556,297 L559,297 L560,296 L563,296 L564,295 L567,295 L568,294 L571,294 L572,293 L576,293 L577,292 L586,291 L587,290 L593,290 L594,289 L601,289 L602,288 L611,288 L612,287 L631,287 L632,286 L642,286 L643,287 L661,287 L662,288 L671,288 L672,289 L686,290 L687,291 L691,291 L692,292 L696,292 L697,293 L701,293 L702,294 L705,294 L706,295 L709,295 L710,296 L717,297 L718,298 L724,299 L725,300 L727,300 L728,301 L730,301 L731,302 L733,302 L734,303 L736,303 L737,304 L739,304 L743,306 L746,306 L747,307 L756,307 L757,306 L761,306 L769,302 L777,294 L778,291 L780,289 L780,287 L782,283 L782,271 L781,270 L781,267 L777,259 L768,251 L762,248 L757,247 L754,245 L752,245 L751,244 L749,244 L748,243 L746,243 L742,241 L739,241 L738,240 L736,240 L732,238 L729,238 L728,237 L721,236 L720,235 L716,235 L715,234 L712,234 L711,233 L707,233 L706,232 L702,232 L701,231 L696,231 L695,230 L681,229 L680,228 L670,228 L669,227 L652,227 L651,226 L623,226 L622,227 Z" fill="#000080" transform="translate(0 11)"/>
  </g>

  <!-- Main ring -->
  <g filter="url(#shadowSoft)">
    <path d="M606,227 L605,228 L596,228 L595,229 L588,229 L587,230 L582,230 L581,231 L575,231 L574,232 L570,232 L569,233 L564,233 L563,234 L560,234 L559,235 L555,235 L554,236 L551,236 L550,237 L543,238 L542,239 L540,239 L536,241 L533,241 L532,242 L530,242 L526,244 L523,244 L517,247 L515,247 L514,248 L509,249 L506,251 L504,251 L501,253 L499,253 L496,255 L494,255 L489,258 L487,258 L463,270 L461,272 L452,276 L450,278 L442,282 L439,285 L436,286 L434,288 L427,292 L424,295 L423,295 L413,303 L412,303 L403,311 L402,311 L389,323 L388,323 L363,348 L363,349 L351,362 L351,363 L347,367 L347,368 L335,383 L335,384 L323,401 L322,404 L320,406 L316,414 L314,416 L298,448 L298,450 L295,455 L295,457 L291,465 L290,470 L288,473 L288,475 L287,476 L286,481 L284,484 L284,487 L283,488 L283,490 L282,491 L282,493 L280,497 L280,500 L278,504 L278,507 L277,508 L277,511 L276,512 L276,515 L275,516 L275,520 L274,521 L274,525 L273,526 L272,535 L271,536 L270,548 L269,549 L269,555 L268,556 L268,565 L267,566 L267,579 L266,580 L266,622 L267,623 L267,636 L268,637 L268,646 L269,647 L269,654 L270,655 L270,661 L271,662 L272,673 L273,674 L274,683 L275,684 L275,687 L276,688 L276,691 L277,692 L277,695 L278,696 L279,703 L281,707 L281,710 L282,711 L282,713 L283,714 L283,716 L284,717 L284,719 L285,720 L285,722 L286,723 L288,731 L290,734 L291,739 L296,749 L296,751 L310,779 L312,781 L318,793 L320,795 L320,796 L322,798 L322,799 L324,801 L324,802 L326,804 L326,805 L328,807 L332,814 L335,817 L335,818 L338,821 L338,822 L341,825 L341,826 L345,830 L345,831 L349,835 L349,836 L367,855 L367,856 L394,881 L395,881 L404,889 L405,889 L416,898 L423,902 L426,905 L429,906 L440,914 L445,916 L452,921 L461,925 L463,927 L479,935 L481,935 L490,940 L492,940 L495,942 L497,942 L505,946 L510,947 L513,949 L515,949 L516,950 L518,950 L519,951 L521,951 L522,952 L524,952 L525,953 L527,953 L528,954 L530,954 L531,955 L533,955 L537,957 L544,958 L548,960 L551,960 L552,961 L555,961 L556,962 L559,962 L560,963 L563,963 L564,964 L568,964 L569,965 L573,965 L574,966 L578,966 L579,967 L584,967 L585,968 L597,969 L598,970 L606,970 L607,971 L618,971 L619,972 L659,972 L660,971 L672,971 L673,970 L682,970 L683,969 L689,969 L690,968 L696,968 L697,967 L708,966 L709,965 L713,965 L714,964 L722,963 L723,962 L726,962 L727,961 L734,960 L738,958 L741,958 L742,957 L744,957 L748,955 L751,955 L757,952 L765,950 L773,946 L778,945 L785,941 L787,941 L794,937 L796,937 L812,929 L814,927 L821,924 L823,922 L831,918 L836,914 L839,913 L841,911 L842,911 L844,909 L851,905 L855,901 L859,899 L863,895 L864,895 L868,891 L869,891 L873,887 L874,887 L901,862 L901,861 L914,848 L914,847 L924,836 L924,835 L928,831 L928,830 L937,819 L937,818 L947,804 L948,801 L950,799 L951,796 L956,789 L959,782 L961,780 L970,762 L970,760 L974,753 L974,751 L978,743 L979,738 L983,730 L983,728 L984,727 L984,725 L985,724 L985,722 L986,721 L986,719 L988,715 L988,712 L989,711 L989,709 L991,705 L991,702 L992,701 L992,698 L993,697 L993,694 L994,693 L994,690 L995,689 L995,686 L996,685 L996,681 L997,680 L998,671 L999,670 L1000,658 L1001,657 L1001,651 L1002,650 L1002,642 L1003,641 L1003,629 L1004,628 L1004,577 L1003,576 L1003,565 L1002,564 L1001,548 L1000,547 L1000,542 L999,541 L999,536 L998,535 L997,526 L996,525 L996,522 L995,521 L995,517 L994,516 L994,513 L993,512 L993,509 L992,508 L992,505 L991,504 L990,498 L985,489 L976,481 L970,478 L966,478 L965,477 L956,477 L955,478 L952,478 L942,483 L937,488 L932,497 L932,500 L931,501 L931,513 L932,514 L932,517 L933,518 L933,520 L934,521 L934,523 L936,527 L937,534 L938,535 L938,539 L939,540 L940,548 L941,549 L941,554 L942,555 L943,568 L944,569 L944,579 L945,580 L945,623 L944,624 L944,635 L943,636 L943,644 L942,645 L941,657 L940,658 L940,662 L939,663 L938,672 L936,676 L936,680 L935,681 L934,687 L932,691 L931,698 L930,699 L930,701 L929,702 L927,710 L925,713 L924,718 L918,730 L918,732 L915,737 L915,739 L909,751 L907,753 L904,760 L902,762 L900,767 L898,769 L897,772 L893,777 L892,780 L890,782 L888,786 L882,793 L880,797 L872,806 L872,807 L867,812 L867,813 L860,820 L860,821 L842,839 L841,839 L833,847 L832,847 L828,851 L827,851 L824,854 L823,854 L815,861 L814,861 L803,869 L800,870 L795,874 L788,877 L786,879 L770,887 L768,887 L761,891 L756,892 L751,895 L749,895 L748,896 L746,896 L745,897 L743,897 L742,898 L740,898 L739,899 L737,899 L733,901 L728,901 L724,897 L723,897 L720,894 L717,893 L712,889 L707,887 L705,885 L691,878 L689,878 L684,875 L682,875 L677,872 L675,872 L667,868 L662,867 L659,865 L654,864 L651,862 L646,861 L643,859 L641,859 L640,858 L635,857 L632,855 L627,854 L624,852 L622,852 L619,850 L617,850 L612,847 L610,847 L603,843 L601,843 L599,841 L592,838 L590,836 L586,834 L581,829 L580,829 L579,827 L575,823 L572,817 L572,808 L573,807 L573,805 L576,801 L576,800 L579,797 L579,796 L582,793 L583,793 L586,790 L587,790 L592,786 L608,778 L610,778 L613,776 L615,776 L623,772 L625,772 L626,771 L628,771 L632,769 L635,769 L639,767 L642,767 L643,766 L645,766 L649,764 L652,764 L653,763 L656,763 L657,762 L660,762 L661,761 L664,761 L665,760 L668,760 L669,759 L672,759 L673,758 L677,758 L678,757 L681,757 L682,756 L686,756 L687,755 L691,755 L692,754 L696,754 L697,753 L701,753 L702,752 L707,752 L708,751 L713,751 L714,750 L718,750 L719,749 L731,748 L732,747 L738,747 L739,746 L745,746 L746,745 L752,745 L753,744 L759,744 L760,743 L767,743 L768,742 L776,742 L777,741 L785,741 L786,740 L804,739 L805,738 L815,738 L816,737 L826,737 L827,736 L835,736 L836,735 L839,735 L841,734 L845,730 L846,728 L846,723 L845,721 L841,717 L839,716 L837,716 L836,715 L828,715 L827,714 L817,714 L816,713 L802,713 L801,712 L784,712 L783,711 L752,711 L751,710 L713,710 L712,711 L684,711 L683,712 L667,712 L666,713 L653,713 L652,714 L640,714 L639,715 L629,715 L628,716 L620,716 L619,717 L611,717 L610,718 L595,719 L594,720 L588,720 L587,721 L574,722 L573,723 L568,723 L567,724 L562,724 L561,725 L556,725 L555,726 L551,726 L550,727 L545,727 L544,728 L540,728 L539,729 L535,729 L534,730 L525,731 L524,732 L521,732 L520,733 L516,733 L515,734 L512,734 L511,735 L507,735 L506,736 L503,736 L502,737 L499,737 L498,738 L495,738 L494,739 L491,739 L490,740 L487,740 L486,741 L479,742 L475,744 L472,744 L471,745 L469,745 L465,747 L462,747 L461,748 L459,748 L458,749 L456,749 L455,750 L453,750 L452,751 L450,751 L449,752 L441,754 L438,756 L430,758 L427,760 L425,760 L420,763 L418,763 L415,765 L413,765 L402,771 L400,771 L386,778 L384,780 L381,781 L369,764 L367,759 L365,757 L363,752 L361,750 L356,740 L356,738 L354,736 L354,734 L350,727 L350,725 L346,717 L346,715 L345,714 L344,709 L342,706 L342,704 L341,703 L341,701 L339,697 L339,694 L338,693 L338,691 L336,687 L336,684 L335,683 L335,680 L334,679 L334,676 L333,675 L333,671 L332,670 L332,666 L331,665 L331,661 L330,660 L330,656 L329,655 L328,642 L327,641 L327,631 L326,630 L326,616 L325,615 L325,586 L326,585 L326,572 L327,571 L327,562 L328,561 L328,555 L329,554 L329,549 L330,548 L331,538 L332,537 L333,529 L334,528 L335,521 L337,517 L337,514 L338,513 L338,511 L340,507 L340,504 L341,503 L342,498 L344,495 L345,490 L347,487 L347,485 L349,482 L349,480 L351,477 L351,475 L355,468 L355,466 L362,452 L364,450 L367,443 L369,441 L371,436 L373,434 L373,433 L375,431 L375,430 L377,428 L377,427 L379,425 L379,424 L381,422 L385,415 L392,407 L392,406 L395,403 L395,402 L407,389 L407,388 L427,368 L428,368 L436,360 L437,360 L446,352 L447,352 L458,343 L459,343 L470,335 L473,334 L475,332 L483,328 L485,326 L509,314 L511,314 L518,310 L520,310 L528,306 L530,306 L531,305 L533,305 L534,304 L536,304 L537,303 L539,303 L540,302 L542,302 L543,301 L545,301 L546,300 L548,300 L552,298 L555,298 L556,297 L559,297 L560,296 L563,296 L564,295 L567,295 L568,294 L571,294 L572,293 L576,293 L577,292 L586,291 L587,290 L593,290 L594,289 L601,289 L602,288 L611,288 L612,287 L631,287 L632,286 L642,286 L643,287 L661,287 L662,288 L671,288 L672,289 L686,290 L687,291 L691,291 L692,292 L696,292 L697,293 L701,293 L702,294 L705,294 L706,295 L709,295 L710,296 L717,297 L718,298 L724,299 L725,300 L727,300 L728,301 L730,301 L731,302 L733,302 L734,303 L736,303 L737,304 L739,304 L743,306 L746,306 L747,307 L756,307 L757,306 L761,306 L769,302 L777,294 L778,291 L780,289 L780,287 L782,283 L782,271 L781,270 L781,267 L777,259 L768,251 L762,248 L757,247 L754,245 L752,245 L751,244 L749,244 L748,243 L746,243 L742,241 L739,241 L738,240 L736,240 L732,238 L729,238 L728,237 L721,236 L720,235 L716,235 L715,234 L712,234 L711,233 L707,233 L706,232 L702,232 L701,231 L696,231 L695,230 L681,229 L680,228 L670,228 L669,227 L652,227 L651,226 L623,226 L622,227 Z" fill="url(#ringMain)"/>
    <path d="M606,227 L605,228 L596,228 L595,229 L588,229 L587,230 L582,230 L581,231 L575,231 L574,232 L570,232 L569,233 L564,233 L563,234 L560,234 L559,235 L555,235 L554,236 L551,236 L550,237 L543,238 L542,239 L540,239 L536,241 L533,241 L532,242 L530,242 L526,244 L523,244 L517,247 L515,247 L514,248 L509,249 L506,251 L504,251 L501,253 L499,253 L496,255 L494,255 L489,258 L487,258 L463,270 L461,272 L452,276 L450,278 L442,282 L439,285 L436,286 L434,288 L427,292 L424,295 L423,295 L413,303 L412,303 L403,311 L402,311 L389,323 L388,323 L363,348 L363,349 L351,362 L351,363 L347,367 L347,368 L335,383 L335,384 L323,401 L322,404 L320,406 L316,414 L314,416 L298,448 L298,450 L295,455 L295,457 L291,465 L290,470 L288,473 L288,475 L287,476 L286,481 L284,484 L284,487 L283,488 L283,490 L282,491 L282,493 L280,497 L280,500 L278,504 L278,507 L277,508 L277,511 L276,512 L276,515 L275,516 L275,520 L274,521 L274,525 L273,526 L272,535 L271,536 L270,548 L269,549 L269,555 L268,556 L268,565 L267,566 L267,579 L266,580 L266,622 L267,623 L267,636 L268,637 L268,646 L269,647 L269,654 L270,655 L270,661 L271,662 L272,673 L273,674 L274,683 L275,684 L275,687 L276,688 L276,691 L277,692 L277,695 L278,696 L279,703 L281,707 L281,710 L282,711 L282,713 L283,714 L283,716 L284,717 L284,719 L285,720 L285,722 L286,723 L288,731 L290,734 L291,739 L296,749 L296,751 L310,779 L312,781 L318,793 L320,795 L320,796 L322,798 L322,799 L324,801 L324,802 L326,804 L326,805 L328,807 L332,814 L335,817 L335,818 L338,821 L338,822 L341,825 L341,826 L345,830 L345,831 L349,835 L349,836 L367,855 L367,856 L394,881 L395,881 L404,889 L405,889 L416,898 L423,902 L426,905 L429,906 L440,914 L445,916 L452,921 L461,925 L463,927 L479,935 L481,935 L490,940 L492,940 L495,942 L497,942 L505,946 L510,947 L513,949 L515,949 L516,950 L518,950 L519,951 L521,951 L522,952 L524,952 L525,953 L527,953 L528,954 L530,954 L531,955 L533,955 L537,957 L544,958 L548,960 L551,960 L552,961 L555,961 L556,962 L559,962 L560,963 L563,963 L564,964 L568,964 L569,965 L573,965 L574,966 L578,966 L579,967 L584,967 L585,968 L597,969 L598,970 L606,970 L607,971 L618,971 L619,972 L659,972 L660,971 L672,971 L673,970 L682,970 L683,969 L689,969 L690,968 L696,968 L697,967 L708,966 L709,965 L713,965 L714,964 L722,963 L723,962 L726,962 L727,961 L734,960 L738,958 L741,958 L742,957 L744,957 L748,955 L751,955 L757,952 L765,950 L773,946 L778,945 L785,941 L787,941 L794,937 L796,937 L812,929 L814,927 L821,924 L823,922 L831,918 L836,914 L839,913 L841,911 L842,911 L844,909 L851,905 L855,901 L859,899 L863,895 L864,895 L868,891 L869,891 L873,887 L874,887 L901,862 L901,861 L914,848 L914,847 L924,836 L924,835 L928,831 L928,830 L937,819 L937,818 L947,804 L948,801 L950,799 L951,796 L956,789 L959,782 L961,780 L970,762 L970,760 L974,753 L974,751 L978,743 L979,738 L983,730 L983,728 L984,727 L984,725 L985,724 L985,722 L986,721 L986,719 L988,715 L988,712 L989,711 L989,709 L991,705 L991,702 L992,701 L992,698 L993,697 L993,694 L994,693 L994,690 L995,689 L995,686 L996,685 L996,681 L997,680 L998,671 L999,670 L1000,658 L1001,657 L1001,651 L1002,650 L1002,642 L1003,641 L1003,629 L1004,628 L1004,577 L1003,576 L1003,565 L1002,564 L1001,548 L1000,547 L1000,542 L999,541 L999,536 L998,535 L997,526 L996,525 L996,522 L995,521 L995,517 L994,516 L994,513 L993,512 L993,509 L992,508 L992,505 L991,504 L990,498 L985,489 L976,481 L970,478 L966,478 L965,477 L956,477 L955,478 L952,478 L942,483 L937,488 L932,497 L932,500 L931,501 L931,513 L932,514 L932,517 L933,518 L933,520 L934,521 L934,523 L936,527 L937,534 L938,535 L938,539 L939,540 L940,548 L941,549 L941,554 L942,555 L943,568 L944,569 L944,579 L945,580 L945,623 L944,624 L944,635 L943,636 L943,644 L942,645 L941,657 L940,658 L940,662 L939,663 L938,672 L936,676 L936,680 L935,681 L934,687 L932,691 L931,698 L930,699 L930,701 L929,702 L927,710 L925,713 L924,718 L918,730 L918,732 L915,737 L915,739 L909,751 L907,753 L904,760 L902,762 L900,767 L898,769 L897,772 L893,777 L892,780 L890,782 L888,786 L882,793 L880,797 L872,806 L872,807 L867,812 L867,813 L860,820 L860,821 L842,839 L841,839 L833,847 L832,847 L828,851 L827,851 L824,854 L823,854 L815,861 L814,861 L803,869 L800,870 L795,874 L788,877 L786,879 L770,887 L768,887 L761,891 L756,892 L751,895 L749,895 L748,896 L746,896 L745,897 L743,897 L742,898 L740,898 L739,899 L737,899 L733,901 L728,901 L724,897 L723,897 L720,894 L717,893 L712,889 L707,887 L705,885 L691,878 L689,878 L684,875 L682,875 L677,872 L675,872 L667,868 L662,867 L659,865 L654,864 L651,862 L646,861 L643,859 L641,859 L640,858 L635,857 L632,855 L627,854 L624,852 L622,852 L619,850 L617,850 L612,847 L610,847 L603,843 L601,843 L599,841 L592,838 L590,836 L586,834 L581,829 L580,829 L579,827 L575,823 L572,817 L572,808 L573,807 L573,805 L576,801 L576,800 L579,797 L579,796 L582,793 L583,793 L586,790 L587,790 L592,786 L608,778 L610,778 L613,776 L615,776 L623,772 L625,772 L626,771 L628,771 L632,769 L635,769 L639,767 L642,767 L643,766 L645,766 L649,764 L652,764 L653,763 L656,763 L657,762 L660,762 L661,761 L664,761 L665,760 L668,760 L669,759 L672,759 L673,758 L677,758 L678,757 L681,757 L682,756 L686,756 L687,755 L691,755 L692,754 L696,754 L697,753 L701,753 L702,752 L707,752 L708,751 L713,751 L714,750 L718,750 L719,749 L731,748 L732,747 L738,747 L739,746 L745,746 L746,745 L752,745 L753,744 L759,744 L760,743 L767,743 L768,742 L776,742 L777,741 L785,741 L786,740 L804,739 L805,738 L815,738 L816,737 L826,737 L827,736 L835,736 L836,735 L839,735 L841,734 L845,730 L846,728 L846,723 L845,721 L841,717 L839,716 L837,716 L836,715 L828,715 L827,714 L817,714 L816,713 L802,713 L801,712 L784,712 L783,711 L752,711 L751,710 L713,710 L712,711 L684,711 L683,712 L667,712 L666,713 L653,713 L652,714 L640,714 L639,715 L629,715 L628,716 L620,716 L619,717 L611,717 L610,718 L595,719 L594,720 L588,720 L587,721 L574,722 L573,723 L568,723 L567,724 L562,724 L561,725 L556,725 L555,726 L551,726 L550,727 L545,727 L544,728 L540,728 L539,729 L535,729 L534,730 L525,731 L524,732 L521,732 L520,733 L516,733 L515,734 L512,734 L511,735 L507,735 L506,736 L503,736 L502,737 L499,737 L498,738 L495,738 L494,739 L491,739 L490,740 L487,740 L486,741 L479,742 L475,744 L472,744 L471,745 L469,745 L465,747 L462,747 L461,748 L459,748 L458,749 L456,749 L455,750 L453,750 L452,751 L450,751 L449,752 L441,754 L438,756 L430,758 L427,760 L425,760 L420,763 L418,763 L415,765 L413,765 L402,771 L400,771 L386,778 L384,780 L381,781 L369,764 L367,759 L365,757 L363,752 L361,750 L356,740 L356,738 L354,736 L354,734 L350,727 L350,725 L346,717 L346,715 L345,714 L344,709 L342,706 L342,704 L341,703 L341,701 L339,697 L339,694 L338,693 L338,691 L336,687 L336,684 L335,683 L335,680 L334,679 L334,676 L333,675 L333,671 L332,670 L332,666 L331,665 L331,661 L330,660 L330,656 L329,655 L328,642 L327,641 L327,631 L326,630 L326,616 L325,615 L325,586 L326,585 L326,572 L327,571 L327,562 L328,561 L328,555 L329,554 L329,549 L330,548 L331,538 L332,537 L333,529 L334,528 L335,521 L337,517 L337,514 L338,513 L338,511 L340,507 L340,504 L341,503 L342,498 L344,495 L345,490 L347,487 L347,485 L349,482 L349,480 L351,477 L351,475 L355,468 L355,466 L362,452 L364,450 L367,443 L369,441 L371,436 L373,434 L373,433 L375,431 L375,430 L377,428 L377,427 L379,425 L379,424 L381,422 L385,415 L392,407 L392,406 L395,403 L395,402 L407,389 L407,388 L427,368 L428,368 L436,360 L437,360 L446,352 L447,352 L458,343 L459,343 L470,335 L473,334 L475,332 L483,328 L485,326 L509,314 L511,314 L518,310 L520,310 L528,306 L530,306 L531,305 L533,305 L534,304 L536,304 L537,303 L539,303 L540,302 L542,302 L543,301 L545,301 L546,300 L548,300 L552,298 L555,298 L556,297 L559,297 L560,296 L563,296 L564,295 L567,295 L568,294 L571,294 L572,293 L576,293 L577,292 L586,291 L587,290 L593,290 L594,289 L601,289 L602,288 L611,288 L612,287 L631,287 L632,286 L642,286 L643,287 L661,287 L662,288 L671,288 L672,289 L686,290 L687,291 L691,291 L692,292 L696,292 L697,293 L701,293 L702,294 L705,294 L706,295 L709,295 L710,296 L717,297 L718,298 L724,299 L725,300 L727,300 L728,301 L730,301 L731,302 L733,302 L734,303 L736,303 L737,304 L739,304 L743,306 L746,306 L747,307 L756,307 L757,306 L761,306 L769,302 L777,294 L778,291 L780,289 L780,287 L782,283 L782,271 L781,270 L781,267 L777,259 L768,251 L762,248 L757,247 L754,245 L752,245 L751,244 L749,244 L748,243 L746,243 L742,241 L739,241 L738,240 L736,240 L732,238 L729,238 L728,237 L721,236 L720,235 L716,235 L715,234 L712,234 L711,233 L707,233 L706,232 L702,232 L701,231 L696,231 L695,230 L681,229 L680,228 L670,228 L669,227 L652,227 L651,226 L623,226 L622,227 Z" fill="url(#ringBevel)"/>
    <path d="M606,227 L605,228 L596,228 L595,229 L588,229 L587,230 L582,230 L581,231 L575,231 L574,232 L570,232 L569,233 L564,233 L563,234 L560,234 L559,235 L555,235 L554,236 L551,236 L550,237 L543,238 L542,239 L540,239 L536,241 L533,241 L532,242 L530,242 L526,244 L523,244 L517,247 L515,247 L514,248 L509,249 L506,251 L504,251 L501,253 L499,253 L496,255 L494,255 L489,258 L487,258 L463,270 L461,272 L452,276 L450,278 L442,282 L439,285 L436,286 L434,288 L427,292 L424,295 L423,295 L413,303 L412,303 L403,311 L402,311 L389,323 L388,323 L363,348 L363,349 L351,362 L351,363 L347,367 L347,368 L335,383 L335,384 L323,401 L322,404 L320,406 L316,414 L314,416 L298,448 L298,450 L295,455 L295,457 L291,465 L290,470 L288,473 L288,475 L287,476 L286,481 L284,484 L284,487 L283,488 L283,490 L282,491 L282,493 L280,497 L280,500 L278,504 L278,507 L277,508 L277,511 L276,512 L276,515 L275,516 L275,520 L274,521 L274,525 L273,526 L272,535 L271,536 L270,548 L269,549 L269,555 L268,556 L268,565 L267,566 L267,579 L266,580 L266,622 L267,623 L267,636 L268,637 L268,646 L269,647 L269,654 L270,655 L270,661 L271,662 L272,673 L273,674 L274,683 L275,684 L275,687 L276,688 L276,691 L277,692 L277,695 L278,696 L279,703 L281,707 L281,710 L282,711 L282,713 L283,714 L283,716 L284,717 L284,719 L285,720 L285,722 L286,723 L288,731 L290,734 L291,739 L296,749 L296,751 L310,779 L312,781 L318,793 L320,795 L320,796 L322,798 L322,799 L324,801 L324,802 L326,804 L326,805 L328,807 L332,814 L335,817 L335,818 L338,821 L338,822 L341,825 L341,826 L345,830 L345,831 L349,835 L349,836 L367,855 L367,856 L394,881 L395,881 L404,889 L405,889 L416,898 L423,902 L426,905 L429,906 L440,914 L445,916 L452,921 L461,925 L463,927 L479,935 L481,935 L490,940 L492,940 L495,942 L497,942 L505,946 L510,947 L513,949 L515,949 L516,950 L518,950 L519,951 L521,951 L522,952 L524,952 L525,953 L527,953 L528,954 L530,954 L531,955 L533,955 L537,957 L544,958 L548,960 L551,960 L552,961 L555,961 L556,962 L559,962 L560,963 L563,963 L564,964 L568,964 L569,965 L573,965 L574,966 L578,966 L579,967 L584,967 L585,968 L597,969 L598,970 L606,970 L607,971 L618,971 L619,972 L659,972 L660,971 L672,971 L673,970 L682,970 L683,969 L689,969 L690,968 L696,968 L697,967 L708,966 L709,965 L713,965 L714,964 L722,963 L723,962 L726,962 L727,961 L734,960 L738,958 L741,958 L742,957 L744,957 L748,955 L751,955 L757,952 L765,950 L773,946 L778,945 L785,941 L787,941 L794,937 L796,937 L812,929 L814,927 L821,924 L823,922 L831,918 L836,914 L839,913 L841,911 L842,911 L844,909 L851,905 L855,901 L859,899 L863,895 L864,895 L868,891 L869,891 L873,887 L874,887 L901,862 L901,861 L914,848 L914,847 L924,836 L924,835 L928,831 L928,830 L937,819 L937,818 L947,804 L948,801 L950,799 L951,796 L956,789 L959,782 L961,780 L970,762 L970,760 L974,753 L974,751 L978,743 L979,738 L983,730 L983,728 L984,727 L984,725 L985,724 L985,722 L986,721 L986,719 L988,715 L988,712 L989,711 L989,709 L991,705 L991,702 L992,701 L992,698 L993,697 L993,694 L994,693 L994,690 L995,689 L995,686 L996,685 L996,681 L997,680 L998,671 L999,670 L1000,658 L1001,657 L1001,651 L1002,650 L1002,642 L1003,641 L1003,629 L1004,628 L1004,577 L1003,576 L1003,565 L1002,564 L1001,548 L1000,547 L1000,542 L999,541 L999,536 L998,535 L997,526 L996,525 L996,522 L995,521 L995,517 L994,516 L994,513 L993,512 L993,509 L992,508 L992,505 L991,504 L990,498 L985,489 L976,481 L970,478 L966,478 L965,477 L956,477 L955,478 L952,478 L942,483 L937,488 L932,497 L932,500 L931,501 L931,513 L932,514 L932,517 L933,518 L933,520 L934,521 L934,523 L936,527 L937,534 L938,535 L938,539 L939,540 L940,548 L941,549 L941,554 L942,555 L943,568 L944,569 L944,579 L945,580 L945,623 L944,624 L944,635 L943,636 L943,644 L942,645 L941,657 L940,658 L940,662 L939,663 L938,672 L936,676 L936,680 L935,681 L934,687 L932,691 L931,698 L930,699 L930,701 L929,702 L927,710 L925,713 L924,718 L918,730 L918,732 L915,737 L915,739 L909,751 L907,753 L904,760 L902,762 L900,767 L898,769 L897,772 L893,777 L892,780 L890,782 L888,786 L882,793 L880,797 L872,806 L872,807 L867,812 L867,813 L860,820 L860,821 L842,839 L841,839 L833,847 L832,847 L828,851 L827,851 L824,854 L823,854 L815,861 L814,861 L803,869 L800,870 L795,874 L788,877 L786,879 L770,887 L768,887 L761,891 L756,892 L751,895 L749,895 L748,896 L746,896 L745,897 L743,897 L742,898 L740,898 L739,899 L737,899 L733,901 L728,901 L724,897 L723,897 L720,894 L717,893 L712,889 L707,887 L705,885 L691,878 L689,878 L684,875 L682,875 L677,872 L675,872 L667,868 L662,867 L659,865 L654,864 L651,862 L646,861 L643,859 L641,859 L640,858 L635,857 L632,855 L627,854 L624,852 L622,852 L619,850 L617,850 L612,847 L610,847 L603,843 L601,843 L599,841 L592,838 L590,836 L586,834 L581,829 L580,829 L579,827 L575,823 L572,817 L572,808 L573,807 L573,805 L576,801 L576,800 L579,797 L579,796 L582,793 L583,793 L586,790 L587,790 L592,786 L608,778 L610,778 L613,776 L615,776 L623,772 L625,772 L626,771 L628,771 L632,769 L635,769 L639,767 L642,767 L643,766 L645,766 L649,764 L652,764 L653,763 L656,763 L657,762 L660,762 L661,761 L664,761 L665,760 L668,760 L669,759 L672,759 L673,758 L677,758 L678,757 L681,757 L682,756 L686,756 L687,755 L691,755 L692,754 L696,754 L697,753 L701,753 L702,752 L707,752 L708,751 L713,751 L714,750 L718,750 L719,749 L731,748 L732,747 L738,747 L739,746 L745,746 L746,745 L752,745 L753,744 L759,744 L760,743 L767,743 L768,742 L776,742 L777,741 L785,741 L786,740 L804,739 L805,738 L815,738 L816,737 L826,737 L827,736 L835,736 L836,735 L839,735 L841,734 L845,730 L846,728 L846,723 L845,721 L841,717 L839,716 L837,716 L836,715 L828,715 L827,714 L817,714 L816,713 L802,713 L801,712 L784,712 L783,711 L752,711 L751,710 L713,710 L712,711 L684,711 L683,712 L667,712 L666,713 L653,713 L652,714 L640,714 L639,715 L629,715 L628,716 L620,716 L619,717 L611,717 L610,718 L595,719 L594,720 L588,720 L587,721 L574,722 L573,723 L568,723 L567,724 L562,724 L561,725 L556,725 L555,726 L551,726 L550,727 L545,727 L544,728 L540,728 L539,729 L535,729 L534,730 L525,731 L524,732 L521,732 L520,733 L516,733 L515,734 L512,734 L511,735 L507,735 L506,736 L503,736 L502,737 L499,737 L498,738 L495,738 L494,739 L491,739 L490,740 L487,740 L486,741 L479,742 L475,744 L472,744 L471,745 L469,745 L465,747 L462,747 L461,748 L459,748 L458,749 L456,749 L455,750 L453,750 L452,751 L450,751 L449,752 L441,754 L438,756 L430,758 L427,760 L425,760 L420,763 L418,763 L415,765 L413,765 L402,771 L400,771 L386,778 L384,780 L381,781 L369,764 L367,759 L365,757 L363,752 L361,750 L356,740 L356,738 L354,736 L354,734 L350,727 L350,725 L346,717 L346,715 L345,714 L344,709 L342,706 L342,704 L341,703 L341,701 L339,697 L339,694 L338,693 L338,691 L336,687 L336,684 L335,683 L335,680 L334,679 L334,676 L333,675 L333,671 L332,670 L332,666 L331,665 L331,661 L330,660 L330,656 L329,655 L328,642 L327,641 L327,631 L326,630 L326,616 L325,615 L325,586 L326,585 L326,572 L327,571 L327,562 L328,561 L328,555 L329,554 L329,549 L330,548 L331,538 L332,537 L333,529 L334,528 L335,521 L337,517 L337,514 L338,513 L338,511 L340,507 L340,504 L341,503 L342,498 L344,495 L345,490 L347,487 L347,485 L349,482 L349,480 L351,477 L351,475 L355,468 L355,466 L362,452 L364,450 L367,443 L369,441 L371,436 L373,434 L373,433 L375,431 L375,430 L377,428 L377,427 L379,425 L379,424 L381,422 L385,415 L392,407 L392,406 L395,403 L395,402 L407,389 L407,388 L427,368 L428,368 L436,360 L437,360 L446,352 L447,352 L458,343 L459,343 L470,335 L473,334 L475,332 L483,328 L485,326 L509,314 L511,314 L518,310 L520,310 L528,306 L530,306 L531,305 L533,305 L534,304 L536,304 L537,303 L539,303 L540,302 L542,302 L543,301 L545,301 L546,300 L548,300 L552,298 L555,298 L556,297 L559,297 L560,296 L563,296 L564,295 L567,295 L568,294 L571,294 L572,293 L576,293 L577,292 L586,291 L587,290 L593,290 L594,289 L601,289 L602,288 L611,288 L612,287 L631,287 L632,286 L642,286 L643,287 L661,287 L662,288 L671,288 L672,289 L686,290 L687,291 L691,291 L692,292 L696,292 L697,293 L701,293 L702,294 L705,294 L706,295 L709,295 L710,296 L717,297 L718,298 L724,299 L725,300 L727,300 L728,301 L730,301 L731,302 L733,302 L734,303 L736,303 L737,304 L739,304 L743,306 L746,306 L747,307 L756,307 L757,306 L761,306 L769,302 L777,294 L778,291 L780,289 L780,287 L782,283 L782,271 L781,270 L781,267 L777,259 L768,251 L762,248 L757,247 L754,245 L752,245 L751,244 L749,244 L748,243 L746,243 L742,241 L739,241 L738,240 L736,240 L732,238 L729,238 L728,237 L721,236 L720,235 L716,235 L715,234 L712,234 L711,233 L707,233 L706,232 L702,232 L701,231 L696,231 L695,230 L681,229 L680,228 L670,228 L669,227 L652,227 L651,226 L623,226 L622,227 Z" fill="url(#ringEdgeShadow)"/>
  </g>

  <!-- Text extrusion shadow -->
  <g opacity="0.5">
    <path d="M371,493 L371,496 L370,497 L370,506 L371,507 L372,512 L374,514 L374,515 L380,520 L384,522 L426,522 L427,523 L428,522 L430,524 L430,559 L428,563 L424,567 L422,568 L416,568 L414,566 L413,566 L411,564 L404,560 L401,560 L400,559 L394,559 L393,560 L388,561 L386,562 L380,568 L378,572 L378,575 L377,576 L377,581 L378,582 L378,585 L381,591 L383,593 L383,594 L385,596 L389,603 L392,606 L394,610 L397,613 L399,617 L402,620 L402,621 L405,624 L405,625 L409,629 L409,630 L413,634 L413,635 L423,646 L423,647 L430,654 L430,655 L446,671 L446,672 L448,673 L463,688 L464,688 L474,697 L481,701 L483,701 L487,703 L490,703 L491,704 L494,704 L495,705 L509,706 L510,705 L519,705 L520,704 L524,704 L525,703 L527,703 L528,702 L532,701 L534,699 L534,698 L529,693 L528,693 L525,690 L524,690 L520,686 L519,686 L515,682 L514,682 L508,676 L507,676 L501,670 L500,670 L464,634 L464,633 L457,626 L457,625 L447,614 L447,613 L443,609 L443,608 L440,605 L440,604 L449,599 L457,592 L459,592 L464,596 L470,597 L471,598 L497,598 L499,600 L499,606 L498,607 L498,612 L499,613 L499,642 L502,648 L509,655 L518,660 L520,660 L521,661 L525,661 L526,662 L531,662 L532,661 L534,661 L537,658 L537,524 L538,523 L547,523 L548,522 L558,522 L559,523 L561,522 L563,524 L563,567 L564,568 L564,575 L565,576 L566,583 L569,589 L569,591 L571,595 L575,600 L575,601 L578,604 L578,605 L583,610 L584,610 L590,615 L601,620 L604,620 L605,621 L608,621 L609,622 L624,622 L625,621 L632,620 L633,621 L633,638 L634,639 L635,645 L637,647 L637,648 L644,655 L645,655 L647,657 L653,660 L661,661 L662,662 L666,662 L667,661 L669,661 L672,658 L672,592 L673,590 L681,582 L688,578 L692,578 L693,577 L695,577 L696,578 L699,578 L701,580 L702,580 L704,582 L706,586 L706,589 L707,590 L707,595 L706,596 L705,602 L703,604 L701,608 L690,619 L689,623 L704,653 L707,655 L711,654 L718,648 L719,648 L732,634 L740,620 L740,618 L741,617 L741,615 L742,614 L742,612 L744,608 L744,604 L745,603 L745,582 L744,581 L743,574 L740,569 L739,565 L737,563 L736,560 L731,555 L731,554 L721,546 L713,542 L711,542 L707,540 L704,540 L703,539 L684,539 L683,540 L680,540 L676,542 L673,542 L672,541 L672,524 L675,522 L680,522 L681,523 L682,522 L767,522 L768,523 L769,522 L801,522 L802,523 L805,523 L806,524 L806,558 L805,560 L799,566 L794,566 L784,559 L782,559 L781,558 L777,558 L776,557 L774,558 L769,558 L765,560 L759,566 L757,570 L757,572 L756,573 L756,581 L757,582 L757,584 L760,590 L762,592 L762,593 L764,595 L768,602 L771,605 L773,609 L776,612 L776,613 L779,616 L779,617 L782,620 L782,621 L785,624 L785,625 L797,639 L797,640 L802,645 L802,646 L829,675 L830,675 L844,689 L845,689 L855,698 L861,701 L863,701 L867,703 L870,703 L871,704 L875,704 L876,705 L896,705 L897,704 L901,704 L902,703 L909,702 L913,699 L913,697 L910,694 L906,692 L902,688 L901,688 L897,684 L896,684 L891,679 L890,679 L884,673 L883,673 L850,641 L850,640 L835,624 L835,623 L831,619 L831,618 L817,602 L821,598 L825,596 L834,587 L841,574 L841,572 L843,568 L843,565 L844,564 L844,559 L845,558 L845,524 L847,522 L848,523 L851,523 L852,522 L855,522 L856,523 L859,523 L860,522 L875,522 L876,521 L880,520 L888,511 L889,505 L890,504 L890,499 L889,498 L888,492 L881,484 L875,481 L384,481 L377,485 L374,488 L374,489 Z M604,522 L605,523 L606,522 L632,522 L633,523 L633,572 L632,574 L625,581 L619,584 L613,584 L609,582 L605,577 L603,573 L603,570 L602,569 L602,524 Z M471,522 L482,522 L483,523 L484,522 L494,522 L495,523 L496,522 L498,524 L499,550 L498,551 L498,557 L497,558 L470,558 L469,557 L469,524 Z" fill="#000080" transform="translate(0 12)"/>
    <path d="M371,493 L371,496 L370,497 L370,506 L371,507 L372,512 L374,514 L374,515 L380,520 L384,522 L426,522 L427,523 L428,522 L430,524 L430,559 L428,563 L424,567 L422,568 L416,568 L414,566 L413,566 L411,564 L404,560 L401,560 L400,559 L394,559 L393,560 L388,561 L386,562 L380,568 L378,572 L378,575 L377,576 L377,581 L378,582 L378,585 L381,591 L383,593 L383,594 L385,596 L389,603 L392,606 L394,610 L397,613 L399,617 L402,620 L402,621 L405,624 L405,625 L409,629 L409,630 L413,634 L413,635 L423,646 L423,647 L430,654 L430,655 L446,671 L446,672 L448,673 L463,688 L464,688 L474,697 L481,701 L483,701 L487,703 L490,703 L491,704 L494,704 L495,705 L509,706 L510,705 L519,705 L520,704 L524,704 L525,703 L527,703 L528,702 L532,701 L534,699 L534,698 L529,693 L528,693 L525,690 L524,690 L520,686 L519,686 L515,682 L514,682 L508,676 L507,676 L501,670 L500,670 L464,634 L464,633 L457,626 L457,625 L447,614 L447,613 L443,609 L443,608 L440,605 L440,604 L449,599 L457,592 L459,592 L464,596 L470,597 L471,598 L497,598 L499,600 L499,606 L498,607 L498,612 L499,613 L499,642 L502,648 L509,655 L518,660 L520,660 L521,661 L525,661 L526,662 L531,662 L532,661 L534,661 L537,658 L537,524 L538,523 L547,523 L548,522 L558,522 L559,523 L561,522 L563,524 L563,567 L564,568 L564,575 L565,576 L566,583 L569,589 L569,591 L571,595 L575,600 L575,601 L578,604 L578,605 L583,610 L584,610 L590,615 L601,620 L604,620 L605,621 L608,621 L609,622 L624,622 L625,621 L632,620 L633,621 L633,638 L634,639 L635,645 L637,647 L637,648 L644,655 L645,655 L647,657 L653,660 L661,661 L662,662 L666,662 L667,661 L669,661 L672,658 L672,592 L673,590 L681,582 L688,578 L692,578 L693,577 L695,577 L696,578 L699,578 L701,580 L702,580 L704,582 L706,586 L706,589 L707,590 L707,595 L706,596 L705,602 L703,604 L701,608 L690,619 L689,623 L704,653 L707,655 L711,654 L718,648 L719,648 L732,634 L740,620 L740,618 L741,617 L741,615 L742,614 L742,612 L744,608 L744,604 L745,603 L745,582 L744,581 L743,574 L740,569 L739,565 L737,563 L736,560 L731,555 L731,554 L721,546 L713,542 L711,542 L707,540 L704,540 L703,539 L684,539 L683,540 L680,540 L676,542 L673,542 L672,541 L672,524 L675,522 L680,522 L681,523 L682,522 L767,522 L768,523 L769,522 L801,522 L802,523 L805,523 L806,524 L806,558 L805,560 L799,566 L794,566 L784,559 L782,559 L781,558 L777,558 L776,557 L774,558 L769,558 L765,560 L759,566 L757,570 L757,572 L756,573 L756,581 L757,582 L757,584 L760,590 L762,592 L762,593 L764,595 L768,602 L771,605 L773,609 L776,612 L776,613 L779,616 L779,617 L782,620 L782,621 L785,624 L785,625 L797,639 L797,640 L802,645 L802,646 L829,675 L830,675 L844,689 L845,689 L855,698 L861,701 L863,701 L867,703 L870,703 L871,704 L875,704 L876,705 L896,705 L897,704 L901,704 L902,703 L909,702 L913,699 L913,697 L910,694 L906,692 L902,688 L901,688 L897,684 L896,684 L891,679 L890,679 L884,673 L883,673 L850,641 L850,640 L835,624 L835,623 L831,619 L831,618 L817,602 L821,598 L825,596 L834,587 L841,574 L841,572 L843,568 L843,565 L844,564 L844,559 L845,558 L845,524 L847,522 L848,523 L851,523 L852,522 L855,522 L856,523 L859,523 L860,522 L875,522 L876,521 L880,520 L888,511 L889,505 L890,504 L890,499 L889,498 L888,492 L881,484 L875,481 L384,481 L377,485 L374,488 L374,489 Z M604,522 L605,523 L606,522 L632,522 L633,523 L633,572 L632,574 L625,581 L619,584 L613,584 L609,582 L605,577 L603,573 L603,570 L602,569 L602,524 Z M471,522 L482,522 L483,523 L484,522 L494,522 L495,523 L496,522 L498,524 L499,550 L498,551 L498,557 L497,558 L470,558 L469,557 L469,524 Z" fill="#000080" transform="translate(0 7)"/>
  </g>

  <!-- Main text -->
  <g filter="url(#shadowText)">
    <path d="M371,493 L371,496 L370,497 L370,506 L371,507 L372,512 L374,514 L374,515 L380,520 L384,522 L426,522 L427,523 L428,522 L430,524 L430,559 L428,563 L424,567 L422,568 L416,568 L414,566 L413,566 L411,564 L404,560 L401,560 L400,559 L394,559 L393,560 L388,561 L386,562 L380,568 L378,572 L378,575 L377,576 L377,581 L378,582 L378,585 L381,591 L383,593 L383,594 L385,596 L389,603 L392,606 L394,610 L397,613 L399,617 L402,620 L402,621 L405,624 L405,625 L409,629 L409,630 L413,634 L413,635 L423,646 L423,647 L430,654 L430,655 L446,671 L446,672 L448,673 L463,688 L464,688 L474,697 L481,701 L483,701 L487,703 L490,703 L491,704 L494,704 L495,705 L509,706 L510,705 L519,705 L520,704 L524,704 L525,703 L527,703 L528,702 L532,701 L534,699 L534,698 L529,693 L528,693 L525,690 L524,690 L520,686 L519,686 L515,682 L514,682 L508,676 L507,676 L501,670 L500,670 L464,634 L464,633 L457,626 L457,625 L447,614 L447,613 L443,609 L443,608 L440,605 L440,604 L449,599 L457,592 L459,592 L464,596 L470,597 L471,598 L497,598 L499,600 L499,606 L498,607 L498,612 L499,613 L499,642 L502,648 L509,655 L518,660 L520,660 L521,661 L525,661 L526,662 L531,662 L532,661 L534,661 L537,658 L537,524 L538,523 L547,523 L548,522 L558,522 L559,523 L561,522 L563,524 L563,567 L564,568 L564,575 L565,576 L566,583 L569,589 L569,591 L571,595 L575,600 L575,601 L578,604 L578,605 L583,610 L584,610 L590,615 L601,620 L604,620 L605,621 L608,621 L609,622 L624,622 L625,621 L632,620 L633,621 L633,638 L634,639 L635,645 L637,647 L637,648 L644,655 L645,655 L647,657 L653,660 L661,661 L662,662 L666,662 L667,661 L669,661 L672,658 L672,592 L673,590 L681,582 L688,578 L692,578 L693,577 L695,577 L696,578 L699,578 L701,580 L702,580 L704,582 L706,586 L706,589 L707,590 L707,595 L706,596 L705,602 L703,604 L701,608 L690,619 L689,623 L704,653 L707,655 L711,654 L718,648 L719,648 L732,634 L740,620 L740,618 L741,617 L741,615 L742,614 L742,612 L744,608 L744,604 L745,603 L745,582 L744,581 L743,574 L740,569 L739,565 L737,563 L736,560 L731,555 L731,554 L721,546 L713,542 L711,542 L707,540 L704,540 L703,539 L684,539 L683,540 L680,540 L676,542 L673,542 L672,541 L672,524 L675,522 L680,522 L681,523 L682,522 L767,522 L768,523 L769,522 L801,522 L802,523 L805,523 L806,524 L806,558 L805,560 L799,566 L794,566 L784,559 L782,559 L781,558 L777,558 L776,557 L774,558 L769,558 L765,560 L759,566 L757,570 L757,572 L756,573 L756,581 L757,582 L757,584 L760,590 L762,592 L762,593 L764,595 L768,602 L771,605 L773,609 L776,612 L776,613 L779,616 L779,617 L782,620 L782,621 L785,624 L785,625 L797,639 L797,640 L802,645 L802,646 L829,675 L830,675 L844,689 L845,689 L855,698 L861,701 L863,701 L867,703 L870,703 L871,704 L875,704 L876,705 L896,705 L897,704 L901,704 L902,703 L909,702 L913,699 L913,697 L910,694 L906,692 L902,688 L901,688 L897,684 L896,684 L891,679 L890,679 L884,673 L883,673 L850,641 L850,640 L835,624 L835,623 L831,619 L831,618 L817,602 L821,598 L825,596 L834,587 L841,574 L841,572 L843,568 L843,565 L844,564 L844,559 L845,558 L845,524 L847,522 L848,523 L851,523 L852,522 L855,522 L856,523 L859,523 L860,522 L875,522 L876,521 L880,520 L888,511 L889,505 L890,504 L890,499 L889,498 L888,492 L881,484 L875,481 L384,481 L377,485 L374,488 L374,489 Z M604,522 L605,523 L606,522 L632,522 L633,523 L633,572 L632,574 L625,581 L619,584 L613,584 L609,582 L605,577 L603,573 L603,570 L602,569 L602,524 Z M471,522 L482,522 L483,523 L484,522 L494,522 L495,523 L496,522 L498,524 L499,550 L498,551 L498,557 L497,558 L470,558 L469,557 L469,524 Z" fill="url(#textMain)"/>
    <path d="M371,493 L371,496 L370,497 L370,506 L371,507 L372,512 L374,514 L374,515 L380,520 L384,522 L426,522 L427,523 L428,522 L430,524 L430,559 L428,563 L424,567 L422,568 L416,568 L414,566 L413,566 L411,564 L404,560 L401,560 L400,559 L394,559 L393,560 L388,561 L386,562 L380,568 L378,572 L378,575 L377,576 L377,581 L378,582 L378,585 L381,591 L383,593 L383,594 L385,596 L389,603 L392,606 L394,610 L397,613 L399,617 L402,620 L402,621 L405,624 L405,625 L409,629 L409,630 L413,634 L413,635 L423,646 L423,647 L430,654 L430,655 L446,671 L446,672 L448,673 L463,688 L464,688 L474,697 L481,701 L483,701 L487,703 L490,703 L491,704 L494,704 L495,705 L509,706 L510,705 L519,705 L520,704 L524,704 L525,703 L527,703 L528,702 L532,701 L534,699 L534,698 L529,693 L528,693 L525,690 L524,690 L520,686 L519,686 L515,682 L514,682 L508,676 L507,676 L501,670 L500,670 L464,634 L464,633 L457,626 L457,625 L447,614 L447,613 L443,609 L443,608 L440,605 L440,604 L449,599 L457,592 L459,592 L464,596 L470,597 L471,598 L497,598 L499,600 L499,606 L498,607 L498,612 L499,613 L499,642 L502,648 L509,655 L518,660 L520,660 L521,661 L525,661 L526,662 L531,662 L532,661 L534,661 L537,658 L537,524 L538,523 L547,523 L548,522 L558,522 L559,523 L561,522 L563,524 L563,567 L564,568 L564,575 L565,576 L566,583 L569,589 L569,591 L571,595 L575,600 L575,601 L578,604 L578,605 L583,610 L584,610 L590,615 L601,620 L604,620 L605,621 L608,621 L609,622 L624,622 L625,621 L632,620 L633,621 L633,638 L634,639 L635,645 L637,647 L637,648 L644,655 L645,655 L647,657 L653,660 L661,661 L662,662 L666,662 L667,661 L669,661 L672,658 L672,592 L673,590 L681,582 L688,578 L692,578 L693,577 L695,577 L696,578 L699,578 L701,580 L702,580 L704,582 L706,586 L706,589 L707,590 L707,595 L706,596 L705,602 L703,604 L701,608 L690,619 L689,623 L704,653 L707,655 L711,654 L718,648 L719,648 L732,634 L740,620 L740,618 L741,617 L741,615 L742,614 L742,612 L744,608 L744,604 L745,603 L745,582 L744,581 L743,574 L740,569 L739,565 L737,563 L736,560 L731,555 L731,554 L721,546 L713,542 L711,542 L707,540 L704,540 L703,539 L684,539 L683,540 L680,540 L676,542 L673,542 L672,541 L672,524 L675,522 L680,522 L681,523 L682,522 L767,522 L768,523 L769,522 L801,522 L802,523 L805,523 L806,524 L806,558 L805,560 L799,566 L794,566 L784,559 L782,559 L781,558 L777,558 L776,557 L774,558 L769,558 L765,560 L759,566 L757,570 L757,572 L756,573 L756,581 L757,582 L757,584 L760,590 L762,592 L762,593 L764,595 L768,602 L771,605 L773,609 L776,612 L776,613 L779,616 L779,617 L782,620 L782,621 L785,624 L785,625 L797,639 L797,640 L802,645 L802,646 L829,675 L830,675 L844,689 L845,689 L855,698 L861,701 L863,701 L867,703 L870,703 L871,704 L875,704 L876,705 L896,705 L897,704 L901,704 L902,703 L909,702 L913,699 L913,697 L910,694 L906,692 L902,688 L901,688 L897,684 L896,684 L891,679 L890,679 L884,673 L883,673 L850,641 L850,640 L835,624 L835,623 L831,619 L831,618 L817,602 L821,598 L825,596 L834,587 L841,574 L841,572 L843,568 L843,565 L844,564 L844,559 L845,558 L845,524 L847,522 L848,523 L851,523 L852,522 L855,522 L856,523 L859,523 L860,522 L875,522 L876,521 L880,520 L888,511 L889,505 L890,504 L890,499 L889,498 L888,492 L881,484 L875,481 L384,481 L377,485 L374,488 L374,489 Z M604,522 L605,523 L606,522 L632,522 L633,523 L633,572 L632,574 L625,581 L619,584 L613,584 L609,582 L605,577 L603,573 L603,570 L602,569 L602,524 Z M471,522 L482,522 L483,523 L484,522 L494,522 L495,523 L496,522 L498,524 L499,550 L498,551 L498,557 L497,558 L470,558 L469,557 L469,524 Z" fill="url(#textBevel)"/>
  </g>

  <!-- Sun dot shadow and main -->
  <g opacity="0.42">
    <path d="M869,303 L868,304 L864,304 L863,305 L860,305 L859,306 L851,308 L843,312 L833,320 L832,320 L822,331 L822,332 L818,337 L813,347 L813,349 L812,350 L812,352 L810,356 L810,359 L809,360 L809,366 L808,367 L808,383 L809,384 L809,389 L810,390 L811,397 L813,400 L813,402 L818,412 L820,414 L822,418 L826,422 L826,423 L836,432 L837,432 L840,435 L857,443 L860,443 L861,444 L864,444 L865,445 L871,445 L872,446 L886,446 L887,445 L892,445 L893,444 L900,443 L901,442 L903,442 L906,440 L908,440 L912,438 L914,436 L920,433 L932,422 L932,421 L935,418 L935,417 L938,414 L939,411 L941,409 L943,405 L943,403 L945,400 L946,395 L947,394 L947,391 L948,390 L948,385 L949,384 L949,365 L948,364 L948,359 L947,358 L947,355 L946,354 L944,346 L940,338 L938,336 L936,332 L932,328 L932,327 L919,315 L904,307 L902,307 L898,305 L895,305 L894,304 L890,304 L889,303 Z" fill="#5A3300" transform="translate(0 9)"/>
  </g>
  <g filter="url(#sunGlow)">
    <path d="M869,303 L868,304 L864,304 L863,305 L860,305 L859,306 L851,308 L843,312 L833,320 L832,320 L822,331 L822,332 L818,337 L813,347 L813,349 L812,350 L812,352 L810,356 L810,359 L809,360 L809,366 L808,367 L808,383 L809,384 L809,389 L810,390 L811,397 L813,400 L813,402 L818,412 L820,414 L822,418 L826,422 L826,423 L836,432 L837,432 L840,435 L857,443 L860,443 L861,444 L864,444 L865,445 L871,445 L872,446 L886,446 L887,445 L892,445 L893,444 L900,443 L901,442 L903,442 L906,440 L908,440 L912,438 L914,436 L920,433 L932,422 L932,421 L935,418 L935,417 L938,414 L939,411 L941,409 L943,405 L943,403 L945,400 L946,395 L947,394 L947,391 L948,390 L948,385 L949,384 L949,365 L948,364 L948,359 L947,358 L947,355 L946,354 L944,346 L940,338 L938,336 L936,332 L932,328 L932,327 L919,315 L904,307 L902,307 L898,305 L895,305 L894,304 L890,304 L889,303 Z" fill="url(#sunMain)"/>
  </g>
</svg>
